<!DOCTYPE svg PUBLIC "-//W3C//DTD SVG 1.1//EN" "http://www.w3.org/Graphics/SVG/1.1/DTD/svg11.dtd">
<!-- Uploaded to: SVG Repo, www.svgrepo.com, Transformed by: SVG Repo Mixer Tools -->
<svg fill="#000000" width="64px" height="64px" viewBox="0 0 32 32" id="icon" xmlns="http://www.w3.org/2000/svg">
<g id="SVGRepo_bgCarrier" stroke-width="0"/>
<g id="SVGRepo_tracerCarrier" stroke-linecap="round" stroke-linejoin="round"/>
<g id="SVGRepo_iconCarrier">
<defs>
<style>.cls-1{fill:none;}</style>
</defs>
<title>drag--vertical</title>
<polygon points="4 20 15 20 15 26.17 12.41 23.59 11 25 16 30 21 25 19.59 23.59 17 26.17 17 20 28 20 28 18 4 18 4 20"/>
<polygon points="11 7 12.41 8.41 15 5.83 15 12 4 12 4 14 28 14 28 12 17 12 17 5.83 19.59 8.41 21 7 16 2 11 7"/>
<rect id="_Transparent_Rectangle_" data-name="&lt;Transparent Rectangle&gt;" class="cls-1" width="32" height="32"/>
</g>
</svg>